PathFileType  4	(X/Y/Z) C:\Users\antoi\Documents\MyRepositories\mobilecap\ResultsAnalysis
DataRate	CameraRate	NumFrames	NumMarkers	Units	OrigDataRate	OrigDataStartFrame	OrigNumFrames
100.0	100.0	5	51	mm	100.0	52	136
Frame#	Time	r_knee			r_shank_antsup			r_ankle			r_calc			r_5meta			r_toe			L_knee			L_shank_antsup			L_ankle			L_calc			L_5meta			L_toe			r_sh2			r_sh3			r_sh4			L_sh2			L_sh3			r_thigh1			r_thigh2			r_thigh3			r_thigh4			r_thigh5			L_thigh1			L_thigh2			L_thigh3			L_thigh4			r.ASIS			r.PSIS			L.ASIS			L.PSIS			C7			R_Shoulder			L_Shoulder			R_Sternum			L_Sternum			R_humerus			R_elbow_med			R_elbow_lat			R_forearm			R_wrist_radius			R_wrist_ulna			L_humerus			L_elbow_med			L_elbow_lat			L_forearm			L_wrist_radius			L_wrist_ulna			R_HJC			L_HJC			R_HJC_reg			L_HJC_reg			
		X1	Y1	Z1	X2	Y2	Z2	X3	Y3	Z3	X4	Y4	Z4	X5	Y5	Z5	X6	Y6	Z6	X7	Y7	Z7	X8	Y8	Z8	X9	Y9	Z9	X10	Y10	Z10	X11	Y11	Z11	X12	Y12	Z12	X13	Y13	Z13	X14	Y14	Z14	X15	Y15	Z15	X16	Y16	Z16	X17	Y17	Z17	X18	Y18	Z18	X19	Y19	Z19	X20	Y20	Z20	X21	Y21	Z21	X22	Y22	Z22	X23	Y23	Z23	X24	Y24	Z24	X25	Y25	Z25	X26	Y26	Z26	X27	Y27	Z27	X28	Y28	Z28	X29	Y29	Z29	X30	Y30	Z30	X31	Y31	Z31	X32	Y32	Z32	X33	Y33	Z33	X34	Y34	Z34	X35	Y35	Z35	X36	Y36	Z36	X37	Y37	Z37	X38	Y38	Z38	X39	Y39	Z39	X40	Y40	Z40	X41	Y41	Z41	X42	Y42	Z42	X43	Y43	Z43	X44	Y44	Z44	X45	Y45	Z45	X46	Y46	Z46	X47	Y47	Z47	X48	Y48	Z48	X49	Y49	Z49	X50	Y50	Z50	X51	Y51	Z51	

52	0.51000000	341.93486	530.05635	-76.32012	340.59843	444.23734	-69.30077	176.83412	115.83686	-118.10073	107.30434	74.23816	-160.63547	310.26159	35.40731	-91.45996	342.26802	56.95231	-153.71738	634.91063	533.82764	-339.23961	707.53736	440.94186	-347.67487	799.12132	118.87657	-311.93077	752.87642	50.54754	-270.03554	975.81032	145.15698	-276.76917	971.17975	107.93376	-338.14623	302.50873	337.63665	-70.84835	268.45928	468.41171	-51.33661	222.09689	363.12836	-62.38240	621.23692	413.36226	-358.89266	670.57163	302.49878	-354.26461	476.93470	831.73495	-22.91737	471.35561	724.94506	-46.15312	409.38164	700.39779	-26.58836	360.19372	838.31960	-27.26790	356.84034	722.26080	-39.63317	589.72417	854.72324	-361.39085	643.21185	725.82388	-360.31681	483.58397	806.57403	-377.27530	545.73808	680.21993	-373.01049	528.30114	1031.57209	-59.82004	345.46582	1073.99835	-165.44267	561.99698	1024.23342	-319.17793	356.98501	1065.03396	-269.13760	359.65671	1577.99323	-207.62526	427.13523	1526.89574	-33.31928	435.14118	1542.28287	-372.37900	509.66748	1504.16395	-174.33400	512.46433	1503.17092	-228.52664	482.13487	1276.80528	75.08427	458.08026	1165.01225	25.64172	489.30670	1188.15548	100.19330	623.01541	1097.22101	93.40131	712.51398	1028.35992	68.79490	682.18031	1007.17694	95.20410	373.31025	1286.51969	-454.44888	297.33679	1217.95202	-393.07903	328.93663	1209.61712	-456.46705	344.98313	1035.77415	-456.69303	351.74157	935.89730	-434.25770	318.87304	938.47946	-456.55396	443.08226	954.56300	-76.89256	475.25662	946.54001	-304.86318	456.31987	963.96882	-99.28709	475.31469	949.18824	-270.27385	
53	0.52000000	353.88373	529.22580	-76.29419	350.56383	443.14586	-68.93539	178.79311	118.66584	-117.83843	108.53654	78.50699	-160.54634	310.29634	35.34744	-91.41586	342.33260	56.90625	-153.73567	646.19692	532.07983	-339.12427	719.03640	439.46459	-346.49624	810.39414	117.78594	-311.00217	764.95845	47.44423	-271.40406	985.48411	147.68158	-272.41512	983.19472	111.75934	-334.54412	309.71150	337.38085	-70.59619	278.88901	469.14948	-51.23982	229.96202	364.96136	-62.36761	633.16848	411.80904	-359.79621	682.59118	301.05263	-354.99149	489.84441	830.50407	-23.33330	483.81521	723.74433	-45.82093	422.03789	699.32810	-26.93038	373.19178	837.37720	-28.13621	369.74084	721.14747	-40.33654	603.41037	853.57438	-360.79313	655.86593	724.16557	-359.45327	497.09748	806.34393	-378.01271	558.18725	679.39673	-373.38660	541.90318	1030.16583	-60.30563	359.09386	1072.20370	-166.27391	575.82601	1023.43709	-319.77865	370.61574	1063.76893	-269.92893	372.60527	1576.76662	-208.71428	440.26234	1525.54401	-34.28181	448.11880	1540.57373	-373.53748	522.81020	1503.05142	-175.34981	525.58948	1502.02200	-229.54976	494.66786	1275.66717	74.43742	470.83642	1163.57322	25.21975	501.87991	1186.90217	99.81435	636.37257	1097.12202	92.87140	726.56609	1029.27723	68.15879	696.45880	1007.71907	94.48362	386.62792	1284.58242	-455.19799	310.67066	1216.02379	-393.70688	342.32564	1207.64123	-457.12476	357.93442	1033.79654	-457.35103	364.35593	933.84690	-434.88841	331.60154	936.54393	-457.31032	456.84049	952.94666	-77.79265	489.31213	945.52714	-305.74074	470.30870	962.04622	-100.06097	489.33183	948.12300	-271.20187	
54	0.53000000	366.54676	528.41685	-76.15136	361.03983	442.12751	-68.43745	181.12146	121.93974	-117.44777	110.12102	83.51533	-160.38188	310.35447	35.27867	-91.38841	342.38505	56.88809	-153.75962	658.10909	530.70639	-338.88942	730.47351	437.72118	-345.25957	818.97157	115.85173	-310.13295	773.34448	44.56605	-272.61952	992.83001	147.01996	-268.08731	992.17693	112.15799	-331.03461	317.33776	337.33394	-70.22028	289.88503	470.06796	-51.05125	238.33869	367.10902	-62.27307	644.77921	410.62152	-360.60233	693.42248	299.58713	-355.62011	503.24933	829.39701	-23.87097	496.68221	722.75667	-45.38180	435.33477	698.32329	-27.30228	386.69059	836.43979	-28.99395	383.27765	720.01508	-41.05921	617.63220	852.98507	-360.31348	669.32543	723.21131	-358.37296	511.25789	806.43972	-378.75146	571.48528	679.02418	-373.59483	555.79389	1028.88222	-60.95800	372.88081	1070.58958	-167.00498	589.72400	1022.99457	-320.61003	384.35292	1062.68854	-270.60161	385.58121	1575.66857	-209.90580	453.36175	1524.43188	-35.31299	461.11297	1538.99794	-374.78408	535.95623	1502.13446	-176.46067	538.73810	1501.04370	-230.66643	506.95174	1274.61796	73.71309	483.29762	1162.25625	24.64375	514.07543	1185.76215	99.34047	649.22339	1096.95743	92.29218	739.98761	1029.98309	67.51363	710.08567	1008.10931	93.76883	400.33565	1282.67463	-456.04006	324.44280	1214.01795	-394.46703	356.19096	1205.64994	-457.91882	371.55028	1031.83007	-458.13343	377.76616	931.83847	-435.65028	345.11448	934.60327	-458.23738	470.93300	951.44105	-78.80805	503.44947	944.81716	-306.77157	484.51070	960.35975	-100.98526	503.48192	947.29774	-272.30932	
55	0.54000000	380.00635	527.63133	-75.86281	372.10142	441.18179	-67.77669	183.90199	125.72795	-116.90746	112.13305	89.36159	-160.13271	310.45387	35.19435	-91.38787	342.43248	56.82999	-153.79253	670.32914	529.56157	-338.56237	741.73866	435.72534	-343.96023	825.43782	113.27730	-309.25874	778.68110	42.18708	-273.47253	998.57096	143.48062	-264.08833	998.75430	109.36790	-327.85396	325.48908	337.51743	-69.66288	301.52656	471.17940	-50.76689	247.32539	369.60270	-62.07638	656.01158	409.61251	-361.24454	703.26401	298.02202	-356.04021	517.19189	828.43167	-24.53559	510.05735	722.01119	-44.87437	449.33862	697.38514	-27.68171	400.71428	835.49845	-29.80037	397.49977	718.88214	-41.75671	632.29077	852.77190	-359.98294	683.33031	722.72486	-357.22027	525.88564	806.80462	-379.42986	585.32168	678.98380	-373.66684	569.97041	1027.74433	-61.78584	386.84883	1069.21177	-167.63521	603.73314	1022.89496	-321.66391	398.23902	1061.79971	-271.16462	398.57519	1574.69724	-211.19939	466.40884	1523.59045	-36.42825	474.12349	1537.58842	-376.10768	549.09785	1501.41232	-177.66000	551.89147	1500.23280	-231.86690	518.95304	1273.69858	72.91478	495.46351	1161.10892	23.88587	525.86649	1184.77644	98.76053	661.54640	1096.75211	91.66063	752.76198	1030.48963	66.86539	723.02356	1008.35816	93.05237	414.42756	1280.84197	-456.96441	338.64620	1211.97918	-395.35103	370.52044	1203.69424	-458.83884	385.83968	1029.92877	-459.03589	391.97862	929.92206	-436.53683	359.42415	932.70581	-459.33001	485.35916	950.08364	-79.92880	517.68754	944.41083	-307.94148	498.90374	958.98951	-102.05502	517.77273	946.71438	-273.57528	
56	0.55000000	394.35999	526.87193	-75.38525	383.85673	440.31569	-66.90372	187.23429	130.09835	-116.18675	114.69621	96.15252	-159.79088	310.61528	35.08781	-91.41898	342.48575	56.65202	-153.84060	682.50665	528.51513	-338.19269	752.71034	433.55416	-342.62218	830.49223	110.36633	-308.33806	781.83730	40.54276	-273.85782	1003.38943	137.69909	-260.69877	1003.62494	104.07155	-325.19895	334.28268	337.94776	-68.85465	313.92741	472.50270	-50.38087	257.04402	372.47074	-61.75927	666.82988	408.64292	-361.69668	712.37643	296.35300	-356.18537	531.69380	827.63780	-25.32555	524.08410	721.50114	-44.38211	464.10747	696.51993	-28.02636	415.28130	834.54979	-30.53662	412.44441	717.77603	-42.36942	647.21770	852.74174	-359.81711	697.54684	722.44078	-356.15994	540.73592	807.36527	-380.00351	599.31673	679.14317	-373.62558	584.42700	1026.78292	-62.78232	401.01775	1068.10195	-168.19093	617.89599	1023.09654	-322.89695	412.30667	1061.10646	-271.65985	411.56782	1573.85637	-212.60205	479.37834	1523.03121	-37.64197	487.15240	1536.36913	-377.50157	562.23039	1500.88225	-178.93934	565.03428	1499.59080	-233.14161	530.64861	1272.94132	72.04730	507.30464	1160.18079	22.94113	537.24280	1183.97256	98.06828	673.32908	1096.51828	90.97873	764.88531	1030.80211	66.21801	735.25121	1008.46873	92.32802	428.88865	1279.12466	-457.96379	353.24338	1209.96174	-396.36727	385.29004	1201.81796	-459.87655	400.80263	1028.13834	-460.05804	406.99595	928.14054	-437.54161	374.53410	930.88973	-460.57674	500.09889	948.91502	-81.13559	532.05483	944.28317	-309.22246	513.48690	957.97315	-103.24914	532.21900	946.36810	-274.95536	
